<?xml version="1.0" standalone="no"?>
<!DOCTYPE svg PUBLIC "-//W3C//DTD SVG 20010904//EN"
 "http://www.w3.org/TR/2001/REC-SVG-20010904/DTD/svg10.dtd">
<svg version="1.0" xmlns="http://www.w3.org/2000/svg"
 width="500.000000pt" height="500.000000pt" viewBox="0 0 500.000000 500.000000"
 preserveAspectRatio="xMidYMid meet">

<g transform="translate(0.000000,500.000000) scale(0.100000,-0.100000)"
fill="#000000" stroke="none">
<path d="M2492 4813 l2308 -3 0 -2305 0 -2305 -2308 -3 -2307 -2 2313 -3 2312
-2 0 2315 0 2315 -2312 -2 -2313 -3 2307 -2z"/>
<path d="M690 3030 l0 -330 50 0 50 0 2 192 3 191 75 -189 76 -189 56 -3 57
-3 -53 133 c-29 73 -88 222 -131 331 l-78 197 -54 0 -53 0 0 -330z"/>
<path d="M1952 3029 c-74 -182 -132 -332 -130 -333 1 -1 26 0 53 2 l50 4 74
186 c41 103 78 191 82 197 5 5 9 -78 9 -188 l0 -197 50 0 50 0 0 330 0 330
-52 0 -53 0 -133 -331z"/>
<path d="M2505 3033 l92 -328 51 -3 50 -3 -24 88 c-13 48 -54 197 -91 331
l-66 242 -52 0 -52 0 92 -327z"/>
<path d="M3407 3353 c-2 -4 -44 -147 -92 -317 -48 -171 -89 -316 -92 -323 -4
-10 8 -13 43 -13 l49 0 64 228 c35 125 67 231 71 235 4 4 30 -77 59 -180 29
-103 58 -208 65 -233 l13 -45 50 -3 50 -3 -91 328 -92 328 -46 3 c-25 2 -48
-1 -51 -5z"/>
<path d="M4394 3333 c-4 -16 -46 -164 -94 -330 l-86 -303 50 0 51 0 88 308
c48 169 90 317 94 330 5 21 2 22 -46 22 -47 0 -51 -2 -57 -27z"/>
<path d="M1200 2510 c0 -82 3 -100 15 -100 12 0 15 15 16 73 l0 72 27 -72 c15
-40 32 -73 39 -73 6 0 21 26 32 58 38 102 40 103 40 20 1 -62 4 -78 16 -78 12
0 15 18 15 101 0 97 -1 100 -21 97 -17 -2 -29 -21 -52 -82 l-30 -80 -30 82
c-23 63 -34 82 -48 82 -17 0 -19 -9 -19 -100z"/>
<path d="M1541 2588 c-22 -59 -61 -170 -61 -174 0 -2 6 -4 13 -4 7 0 18 14 24
30 10 26 16 30 50 30 34 0 40 -4 50 -30 6 -16 16 -30 22 -30 15 0 14 3 -23
105 -34 95 -58 118 -75 73z m42 -53 l16 -45 -34 0 -34 0 16 45 c8 25 16 45 18
45 2 0 10 -20 18 -45z"/>
<path d="M1730 2510 c0 -82 3 -100 15 -100 12 0 15 18 15 100 0 82 -3 100 -15
100 -12 0 -15 -18 -15 -100z"/>
<path d="M1840 2600 c0 -5 14 -10 30 -10 l30 0 0 -90 c0 -73 3 -90 15 -90 12
0 15 17 15 90 l0 90 30 0 c17 0 30 5 30 10 0 6 -32 10 -75 10 -43 0 -75 -4
-75 -10z"/>
<path d="M2070 2510 c0 -60 4 -100 10 -100 6 0 10 20 10 45 l0 45 55 0 55 0 0
-45 c0 -33 4 -45 15 -45 12 0 15 18 15 100 0 82 -3 100 -15 100 -11 0 -15 -11
-15 -40 l0 -40 -55 0 -55 0 0 40 c0 22 -4 40 -10 40 -6 0 -10 -40 -10 -100z"/>
<path d="M2330 2510 c0 -60 4 -100 10 -100 6 0 10 40 10 100 0 60 -4 100 -10
100 -6 0 -10 -40 -10 -100z"/>
<path d="M2450 2510 l0 -100 60 0 c33 0 60 4 60 10 0 6 -20 10 -45 10 l-45 0
0 90 c0 73 -3 90 -15 90 -12 0 -15 -18 -15 -100z"/>
<path d="M2650 2510 c0 -82 3 -100 15 -100 12 0 15 18 15 100 0 82 -3 100 -15
100 -12 0 -15 -18 -15 -100z"/>
<path d="M2870 2604 c0 -30 55 -194 65 -194 6 0 22 35 35 78 l23 77 21 -75
c23 -78 44 -97 56 -50 4 14 16 58 28 98 16 56 17 72 7 72 -7 0 -20 -27 -30
-67 -10 -38 -21 -71 -25 -75 -3 -5 -14 26 -25 67 -11 44 -24 75 -31 75 -7 0
-20 -26 -29 -57 -28 -102 -29 -103 -51 -23 -11 41 -25 75 -32 78 -7 2 -12 0
-12 -4z"/>
<path d="M3234 2558 c-9 -29 -25 -74 -35 -100 -15 -38 -16 -48 -5 -48 7 0 19
14 26 30 11 26 17 30 52 30 34 0 40 -4 49 -30 6 -16 17 -30 25 -30 10 0 4 25
-21 95 -19 53 -35 98 -35 100 0 3 -9 5 -19 5 -15 0 -24 -13 -37 -52z m65 -55
c1 -8 -11 -13 -29 -13 -34 0 -36 7 -14 58 l16 37 13 -35 c8 -19 14 -41 14 -47z"/>
<path d="M3440 2510 l0 -100 40 0 c77 0 110 33 110 111 0 59 -34 89 -100 89
l-50 0 0 -100z m102 63 c49 -58 15 -143 -58 -143 -11 0 -14 17 -14 80 l0 80
28 0 c16 0 36 -8 44 -17z"/>
<path d="M3680 2510 l0 -100 65 0 c37 0 65 4 65 10 0 6 -22 10 -50 10 l-50 0
0 35 c0 35 0 35 45 35 25 0 45 5 45 10 0 6 -20 10 -45 10 -45 0 -45 0 -45 35
l0 35 50 0 c28 0 50 5 50 10 0 6 -28 10 -65 10 l-65 0 0 -100z"/>
<path d="M1110 2300 c0 -3 58 -149 128 -325 l128 -320 70 -3 69 -2 122 307
c67 170 125 316 129 326 6 16 1 18 -47 15 l-54 -3 -107 -264 c-59 -145 -109
-265 -111 -267 -2 -2 -52 117 -111 265 l-107 269 -55 4 c-30 1 -54 1 -54 -2z"/>
<path d="M3104 2295 c-1 -5 -28 -100 -59 -210 -84 -298 -87 -307 -91 -302 -4
4 -144 502 -144 512 0 3 -23 5 -51 5 -38 0 -50 -3 -46 -13 3 -8 45 -154 93
-325 l88 -312 61 0 61 0 88 312 c48 171 90 317 93 324 3 8 -11 13 -43 16 -26
2 -48 -1 -50 -7z"/>
<path d="M690 1975 l0 -325 50 0 50 0 0 325 0 325 -50 0 -50 0 0 -325z"/>
<path d="M2090 1975 l0 -325 50 0 50 0 0 325 0 325 -50 0 -50 0 0 -325z"/>
<path d="M3703 2285 c6 -14 149 -520 170 -598 l10 -38 65 3 66 3 86 300 c48
165 90 310 94 323 7 21 5 22 -43 22 l-50 0 -14 -47 c-8 -27 -40 -140 -72 -253
-32 -113 -61 -208 -65 -213 -3 -4 -34 93 -68 215 -34 123 -67 240 -72 261 -11
37 -12 37 -62 37 -40 0 -49 -3 -45 -15z"/>
</g>
</svg>
